<svg xmlns="http://www.w3.org/2000/svg" xmlns:xlink="http://www.w3.org/1999/xlink" width="375" viewBox="0 0 375 375" height="375" version="1.0"><defs><clipPath id="d"><path d="M 9 9 L 367 9 L 367 367 L 9 367 Z M 9 9"/></clipPath><clipPath id="e"><path d="M 390.722656 337.5 L 37.707031 390.691406 L -15.484375 37.675781 L 337.53125 -15.515625 Z M 390.722656 337.5"/></clipPath><clipPath id="f"><path d="M 390.722656 337.5 L 37.707031 390.691406 L -15.484375 37.675781 L 337.53125 -15.515625 Z M 390.722656 337.5"/></clipPath><clipPath id="g"><path d="M 102 102 L 273 102 L 273 273 L 102 273 Z M 102 102"/></clipPath><clipPath id="h"><path d="M 390.722656 337.5 L 37.707031 390.691406 L -15.484375 37.675781 L 337.53125 -15.515625 Z M 390.722656 337.5"/></clipPath><clipPath id="i"><path d="M 390.722656 337.5 L 37.707031 390.691406 L -15.484375 37.675781 L 337.53125 -15.515625 Z M 390.722656 337.5"/></clipPath><clipPath id="j"><path d="M 239 42 L 326 42 L 326 119 L 239 119 Z M 239 42"/></clipPath><clipPath id="k"><path d="M 390.722656 337.5 L 37.707031 390.691406 L -15.484375 37.675781 L 337.53125 -15.515625 Z M 390.722656 337.5"/></clipPath><clipPath id="l"><path d="M 390.722656 337.5 L 37.707031 390.691406 L -15.484375 37.675781 L 337.53125 -15.515625 Z M 390.722656 337.5"/></clipPath><clipPath id="m"><path d="M 243 32 L 335 32 L 335 114 L 243 114 Z M 243 32"/></clipPath><clipPath id="n"><path d="M 390.722656 337.5 L 37.707031 390.691406 L -15.484375 37.675781 L 337.53125 -15.515625 Z M 390.722656 337.5"/></clipPath><clipPath id="o"><path d="M 390.722656 337.5 L 37.707031 390.691406 L -15.484375 37.675781 L 337.53125 -15.515625 Z M 390.722656 337.5"/></clipPath><clipPath id="p"><path d="M 219 96 L 275 96 L 275 146 L 219 146 Z M 219 96"/></clipPath><clipPath id="q"><path d="M 390.722656 337.5 L 37.707031 390.691406 L -15.484375 37.675781 L 337.53125 -15.515625 Z M 390.722656 337.5"/></clipPath><clipPath id="r"><path d="M 390.722656 337.5 L 37.707031 390.691406 L -15.484375 37.675781 L 337.53125 -15.515625 Z M 390.722656 337.5"/></clipPath><clipPath id="s"><path d="M 231 63 L 305 63 L 305 130 L 231 130 Z M 231 63"/></clipPath><clipPath id="t"><path d="M 390.722656 337.5 L 37.707031 390.691406 L -15.484375 37.675781 L 337.53125 -15.515625 Z M 390.722656 337.5"/></clipPath><clipPath id="u"><path d="M 390.722656 337.5 L 37.707031 390.691406 L -15.484375 37.675781 L 337.53125 -15.515625 Z M 390.722656 337.5"/></clipPath><clipPath id="v"><path d="M 227 75 L 295 75 L 295 135 L 227 135 Z M 227 75"/></clipPath><clipPath id="w"><path d="M 390.722656 337.5 L 37.707031 390.691406 L -15.484375 37.675781 L 337.53125 -15.515625 Z M 390.722656 337.5"/></clipPath><clipPath id="x"><path d="M 390.722656 337.5 L 37.707031 390.691406 L -15.484375 37.675781 L 337.53125 -15.515625 Z M 390.722656 337.5"/></clipPath><clipPath id="y"><path d="M 223 86 L 284 86 L 284 141 L 223 141 Z M 223 86"/></clipPath><clipPath id="z"><path d="M 390.722656 337.5 L 37.707031 390.691406 L -15.484375 37.675781 L 337.53125 -15.515625 Z M 390.722656 337.5"/></clipPath><clipPath id="A"><path d="M 390.722656 337.5 L 37.707031 390.691406 L -15.484375 37.675781 L 337.53125 -15.515625 Z M 390.722656 337.5"/></clipPath><clipPath id="B"><path d="M 235 52 L 316 52 L 316 124 L 235 124 Z M 235 52"/></clipPath><clipPath id="C"><path d="M 390.722656 337.5 L 37.707031 390.691406 L -15.484375 37.675781 L 337.53125 -15.515625 Z M 390.722656 337.5"/></clipPath><clipPath id="D"><path d="M 390.722656 337.5 L 37.707031 390.691406 L -15.484375 37.675781 L 337.53125 -15.515625 Z M 390.722656 337.5"/></clipPath><clipPath id="E"><path d="M 101 251 L 171 251 L 171 295 L 101 295 Z M 101 251"/></clipPath><clipPath id="F"><path d="M 390.722656 337.5 L 37.707031 390.691406 L -15.484375 37.675781 L 337.53125 -15.515625 Z M 390.722656 337.5"/></clipPath><clipPath id="G"><path d="M 390.722656 337.5 L 37.707031 390.691406 L -15.484375 37.675781 L 337.53125 -15.515625 Z M 390.722656 337.5"/></clipPath><clipPath id="H"><path d="M 56 286 L 160 286 L 160 351 L 56 351 Z M 56 286"/></clipPath><clipPath id="I"><path d="M 390.722656 337.5 L 37.707031 390.691406 L -15.484375 37.675781 L 337.53125 -15.515625 Z M 390.722656 337.5"/></clipPath><clipPath id="J"><path d="M 390.722656 337.5 L 37.707031 390.691406 L -15.484375 37.675781 L 337.53125 -15.515625 Z M 390.722656 337.5"/></clipPath><clipPath id="K"><path d="M 73 273 L 164 273 L 164 330 L 73 330 Z M 73 273"/></clipPath><clipPath id="L"><path d="M 390.722656 337.5 L 37.707031 390.691406 L -15.484375 37.675781 L 337.53125 -15.515625 Z M 390.722656 337.5"/></clipPath><clipPath id="M"><path d="M 390.722656 337.5 L 37.707031 390.691406 L -15.484375 37.675781 L 337.53125 -15.515625 Z M 390.722656 337.5"/></clipPath><clipPath id="N"><path d="M 64 279 L 162 279 L 162 341 L 64 341 Z M 64 279"/></clipPath><clipPath id="O"><path d="M 390.722656 337.5 L 37.707031 390.691406 L -15.484375 37.675781 L 337.53125 -15.515625 Z M 390.722656 337.5"/></clipPath><clipPath id="P"><path d="M 390.722656 337.5 L 37.707031 390.691406 L -15.484375 37.675781 L 337.53125 -15.515625 Z M 390.722656 337.5"/></clipPath><clipPath id="Q"><path d="M 110 244 L 173 244 L 173 284 L 110 284 Z M 110 244"/></clipPath><clipPath id="R"><path d="M 390.722656 337.5 L 37.707031 390.691406 L -15.484375 37.675781 L 337.53125 -15.515625 Z M 390.722656 337.5"/></clipPath><clipPath id="S"><path d="M 390.722656 337.5 L 37.707031 390.691406 L -15.484375 37.675781 L 337.53125 -15.515625 Z M 390.722656 337.5"/></clipPath><clipPath id="T"><path d="M 92 258 L 168 258 L 168 307 L 92 307 Z M 92 258"/></clipPath><clipPath id="U"><path d="M 390.722656 337.5 L 37.707031 390.691406 L -15.484375 37.675781 L 337.53125 -15.515625 Z M 390.722656 337.5"/></clipPath><clipPath id="V"><path d="M 390.722656 337.5 L 37.707031 390.691406 L -15.484375 37.675781 L 337.53125 -15.515625 Z M 390.722656 337.5"/></clipPath><clipPath id="W"><path d="M 82 265 L 166 265 L 166 318 L 82 318 Z M 82 265"/></clipPath><clipPath id="X"><path d="M 390.722656 337.5 L 37.707031 390.691406 L -15.484375 37.675781 L 337.53125 -15.515625 Z M 390.722656 337.5"/></clipPath><clipPath id="Y"><path d="M 390.722656 337.5 L 37.707031 390.691406 L -15.484375 37.675781 L 337.53125 -15.515625 Z M 390.722656 337.5"/></clipPath><clipPath id="c"><path d="M0 0H375V375H0z"/></clipPath><filter x="0%" y="0%" width="100%" xmlns:xlink="http://www.w3.org/1999/xlink" xlink:type="simple" xlink:actuate="onLoad" height="100%" id="a" xlink:show="other"><feColorMatrix values="0 0 0 0 1 0 0 0 0 1 0 0 0 0 1 0 0 0 1 0" color-interpolation-filters="sRGB"/></filter><mask id="b"><g filter="url(#a)"><path fill-opacity=".2" d="M-37.5 -37.5H412.5V412.5H-37.5z"/></g></mask></defs><g mask="url(#b)"><g><g clip-path="url(#c)"><g clip-path="url(#d)"><g clip-path="url(#e)"><g clip-path="url(#f)"><path fill="#545454" d="M 213.925781 362.167969 L 214.214844 364.105469 C 311.707031 349.417969 378.824219 258.472656 364.136719 160.984375 C 349.445312 63.496094 258.507812 -3.621094 161.019531 11.070312 C 63.535156 25.757812 -3.589844 116.691406 11.101562 214.179688 C 25.789062 311.671875 116.730469 378.796875 214.214844 364.105469 L 213.632812 360.230469 C 165.953125 367.414062 119.894531 354.59375 83.9375 328.054688 C 47.984375 301.515625 22.164062 261.277344 14.976562 213.597656 C 7.792969 165.917969 20.613281 119.859375 47.148438 83.902344 C 73.6875 47.949219 113.925781 22.132812 161.605469 14.945312 C 209.285156 7.761719 255.34375 20.578125 291.300781 47.113281 C 327.253906 73.65625 353.074219 113.886719 360.261719 161.570312 C 367.445312 209.25 354.625 255.308594 328.089844 291.265625 C 301.550781 327.222656 261.3125 353.046875 213.632812 360.230469 L 213.925781 362.167969"/></g></g></g><g clip-path="url(#g)"><g clip-path="url(#h)"><g clip-path="url(#i)"><path fill="#545454" d="M 184.34375 165.867188 L 184.636719 167.8125 C 190.105469 166.988281 195.367188 168.453125 199.492188 171.492188 C 203.609375 174.539062 206.566406 179.136719 207.390625 184.601562 C 208.210938 190.066406 206.746094 195.332031 203.707031 199.457031 C 200.660156 203.582031 196.0625 206.535156 190.597656 207.359375 C 185.132812 208.183594 179.871094 206.714844 175.746094 203.671875 C 171.621094 200.625 168.671875 196.023438 167.847656 190.5625 C 167.023438 185.09375 168.488281 179.832031 171.53125 175.707031 C 174.578125 171.585938 179.175781 168.632812 184.636719 167.8125 L 184.054688 163.929688 C 170.996094 165.902344 162.003906 178.078125 163.972656 191.144531 C 165.9375 204.203125 178.117188 213.199219 191.179688 211.234375 C 204.242188 209.261719 213.234375 197.078125 211.265625 184.019531 C 209.296875 170.953125 197.117188 161.964844 184.054688 163.929688 Z M 199.957031 269.480469 L 200.25 271.417969 C 246.550781 264.441406 278.433594 221.25 271.460938 174.949219 C 264.480469 128.644531 221.289062 96.773438 174.984375 103.746094 C 128.683594 110.726562 96.804688 153.910156 103.78125 200.214844 C 110.757812 246.511719 153.945312 278.394531 200.25 271.417969 L 199.664062 267.542969 C 177.578125 270.871094 156.25 264.933594 139.59375 252.640625 C 122.941406 240.34375 110.984375 221.714844 107.660156 199.632812 C 104.328125 177.542969 110.265625 156.21875 122.558594 139.5625 C 134.851562 122.910156 153.484375 110.957031 175.570312 107.628906 C 197.660156 104.300781 218.980469 110.234375 235.640625 122.523438 C 252.292969 134.816406 264.25 153.445312 267.578125 175.535156 C 270.90625 197.621094 264.96875 218.945312 252.679688 235.597656 C 240.382812 252.257812 221.753906 264.214844 199.664062 267.542969 L 199.957031 269.480469"/></g></g></g><g clip-path="url(#j)"><g clip-path="url(#k)"><g clip-path="url(#l)"><path fill="#545454" d="M 325.207031 115.6875 C 307.429688 81.875 277.703125 55.886719 242.417969 42.464844 C 241.402344 42.078125 240.269531 42.585938 239.886719 43.601562 C 239.503906 44.609375 240.011719 45.742188 241.019531 46.128906 C 275.421875 59.210938 304.417969 84.566406 321.738281 117.515625 C 322.242188 118.472656 323.425781 118.839844 324.382812 118.335938 C 325.339844 117.832031 325.710938 116.644531 325.207031 115.6875"/></g></g></g><g clip-path="url(#m)"><g clip-path="url(#n)"><g clip-path="url(#o)"><path fill="#545454" d="M 334.382812 110.847656 C 315.433594 74.699219 283.765625 46.984375 246.085938 32.722656 C 245.074219 32.339844 243.941406 32.851562 243.5625 33.867188 C 243.175781 34.875 243.6875 36.007812 244.699219 36.394531 C 281.480469 50.3125 312.414062 77.386719 330.910156 112.667969 C 331.414062 113.625 332.59375 113.992188 333.554688 113.492188 C 334.515625 112.988281 334.882812 111.804688 334.382812 110.84375"/></g></g></g><g clip-path="url(#p)"><g clip-path="url(#q)"><g clip-path="url(#r)"><path fill="#545454" d="M 274.207031 142.628906 C 263.054688 121.199219 244.371094 104.785156 222.0625 96.367188 C 221.046875 95.984375 219.917969 96.496094 219.535156 97.507812 C 219.152344 98.519531 219.664062 99.652344 220.679688 100.03125 C 242.089844 108.113281 260.027344 123.878906 270.726562 144.4375 C 271.226562 145.394531 272.410156 145.773438 273.375 145.269531 C 274.332031 144.769531 274.707031 143.585938 274.207031 142.628906"/></g></g></g><g clip-path="url(#s)"><g clip-path="url(#t)"><g clip-path="url(#u)"><path fill="#545454" d="M 304.761719 126.488281 C 289.671875 97.484375 264.445312 75.339844 234.277344 63.996094 C 233.261719 63.621094 232.132812 64.128906 231.75 65.144531 C 231.371094 66.160156 231.882812 67.289062 232.894531 67.671875 C 262.164062 78.671875 286.640625 100.15625 301.285156 128.300781 C 301.785156 129.261719 302.96875 129.636719 303.929688 129.132812 C 304.886719 128.632812 305.265625 127.449219 304.761719 126.488281"/></g></g></g><g clip-path="url(#v)"><g clip-path="url(#w)"><g clip-path="url(#x)"><path fill="#545454" d="M 294.238281 132.042969 C 280.484375 105.753906 257.464844 85.566406 230.058594 75.1875 C 229.046875 74.804688 227.917969 75.3125 227.53125 76.328125 C 227.148438 77.339844 227.65625 78.46875 228.671875 78.855469 C 255.183594 88.898438 277.464844 108.4375 290.765625 133.859375 C 291.269531 134.816406 292.449219 135.1875 293.410156 134.6875 C 294.371094 134.1875 294.742188 133 294.238281 132.042969"/></g></g></g><g clip-path="url(#y)"><g clip-path="url(#z)"><g clip-path="url(#A)"><path fill="#545454" d="M 283.78125 137.574219 C 276.4375 123.449219 266.03125 111.121094 253.0625 101.304688 C 244.648438 94.929688 235.507812 89.902344 225.882812 86.257812 C 224.867188 85.871094 223.738281 86.382812 223.355469 87.398438 C 222.96875 88.40625 223.480469 89.539062 224.492188 89.925781 C 233.773438 93.4375 242.574219 98.28125 250.691406 104.433594 C 263.210938 113.902344 273.226562 125.773438 280.300781 139.382812 C 280.796875 140.339844 281.984375 140.714844 282.941406 140.214844 C 283.90625 139.71875 284.277344 138.53125 283.78125 137.574219"/></g></g></g><g clip-path="url(#B)"><g clip-path="url(#C)"><g clip-path="url(#D)"><path fill="#545454" d="M 315.519531 120.808594 C 305.625 101.941406 291.601562 85.292969 274.390625 72.347656 C 263.390625 64.074219 251.292969 57.496094 238.550781 52.6875 C 237.539062 52.308594 236.40625 52.820312 236.023438 53.832031 C 235.644531 54.84375 236.152344 55.972656 237.164062 56.355469 C 249.566406 61.039062 261.339844 67.4375 272.035156 75.480469 C 288.769531 88.070312 302.421875 104.269531 312.046875 122.628906 C 312.550781 123.585938 313.734375 123.960938 314.695312 123.453125 C 315.652344 122.949219 316.019531 121.765625 315.519531 120.804688"/></g></g></g><g clip-path="url(#E)"><g clip-path="url(#F)"><g clip-path="url(#G)"><path fill="#545454" d="M 101.980469 254.394531 C 118.160156 275.121094 141.546875 289.542969 167.699219 294.429688 C 168.765625 294.628906 169.789062 293.929688 169.988281 292.863281 C 170.1875 291.796875 169.484375 290.777344 168.421875 290.578125 C 143.222656 285.867188 120.667969 271.960938 105.070312 251.984375 C 104.40625 251.128906 103.175781 250.980469 102.320312 251.644531 C 101.464844 252.3125 101.316406 253.542969 101.980469 254.394531"/></g></g></g><g clip-path="url(#H)"><g clip-path="url(#I)"><g clip-path="url(#J)"><path fill="#545454" d="M 56.789062 289.46875 C 66.3125 301.707031 77.535156 312.667969 90.214844 321.875 C 110.167969 336.363281 133.113281 346.117188 157.089844 350.628906 C 158.15625 350.828125 159.179688 350.121094 159.378906 349.058594 C 159.578125 347.996094 158.878906 346.972656 157.8125 346.769531 C 134.398438 342.371094 111.988281 332.84375 92.515625 318.703125 C 80.140625 309.71875 69.183594 299.015625 59.882812 287.058594 C 59.214844 286.207031 57.984375 286.050781 57.132812 286.71875 C 56.277344 287.382812 56.121094 288.613281 56.789062 289.46875"/></g></g></g><g clip-path="url(#K)"><g clip-path="url(#L)"><g clip-path="url(#M)"><path fill="#545454" d="M 73.53125 276.476562 C 95.035156 304.097656 126.144531 323.265625 161.03125 329.773438 C 162.097656 329.96875 163.121094 329.269531 163.320312 328.207031 C 163.515625 327.140625 162.816406 326.117188 161.75 325.917969 C 127.816406 319.589844 97.542969 300.9375 76.621094 274.070312 C 75.957031 273.214844 74.726562 273.0625 73.871094 273.726562 C 73.019531 274.394531 72.863281 275.625 73.53125 276.476562"/></g></g></g><g clip-path="url(#N)"><g clip-path="url(#O)"><g clip-path="url(#P)"><path fill="#545454" d="M 64.921875 283.148438 C 73.871094 294.660156 84.429688 304.953125 96.335938 313.589844 C 115.019531 327.140625 136.527344 336.285156 159 340.507812 C 160.0625 340.707031 161.089844 340.003906 161.289062 338.941406 C 161.488281 337.875 160.789062 336.855469 159.722656 336.652344 C 137.820312 332.535156 116.84375 323.617188 98.644531 310.410156 C 87.039062 302 76.742188 291.964844 68.019531 280.742188 C 67.351562 279.886719 66.121094 279.734375 65.265625 280.398438 C 64.410156 281.058594 64.257812 282.292969 64.921875 283.148438"/></g></g></g><g clip-path="url(#Q)"><g clip-path="url(#R)"><g clip-path="url(#S)"><path fill="#545454" d="M 110.4375 247.828125 C 124.988281 266.585938 146.003906 279.488281 169.707031 283.839844 C 170.773438 284.035156 171.792969 283.328125 171.988281 282.261719 C 172.183594 281.195312 171.480469 280.175781 170.414062 279.980469 C 147.664062 275.808594 127.5 263.425781 113.53125 245.421875 C 112.871094 244.570312 111.636719 244.414062 110.785156 245.078125 C 109.929688 245.742188 109.773438 246.972656 110.4375 247.828125"/></g></g></g><g clip-path="url(#T)"><g clip-path="url(#U)"><g clip-path="url(#V)"><path fill="#545454" d="M 92.527344 261.722656 C 110.4375 284.820312 136.332031 300.746094 165.503906 306.109375 C 166.570312 306.304688 167.589844 305.601562 167.789062 304.535156 C 167.984375 303.472656 167.28125 302.449219 166.210938 302.25 C 137.992188 297.0625 112.949219 281.660156 95.625 259.324219 C 94.964844 258.464844 93.730469 258.3125 92.875 258.972656 C 92.023438 259.636719 91.863281 260.871094 92.527344 261.722656"/></g></g></g><g clip-path="url(#W)"><g clip-path="url(#X)"><g clip-path="url(#Y)"><path fill="#545454" d="M 83.253906 268.929688 C 102.984375 294.140625 131.5 311.714844 163.304688 317.71875 C 164.367188 317.917969 165.390625 317.21875 165.59375 316.152344 C 165.796875 315.089844 165.09375 314.0625 164.03125 313.863281 C 133.179688 308.046875 105.480469 290.976562 86.34375 266.515625 C 85.675781 265.664062 84.441406 265.511719 83.589844 266.179688 C 82.738281 266.847656 82.585938 268.078125 83.253906 268.929688"/></g></g></g></g></g></g><g fill="#323232"><g><g><path d="M 55.46875 -28.625 L 57.234375 -28.625 L 58.125 -27.734375 L 58.125 -27.515625 C 58.125 -26.035156 57.164062 -24.851562 55.25 -23.96875 L 54.796875 -22.40625 C 57.316406 -20.664062 58.578125 -18.890625 58.578125 -17.078125 L 58.578125 -15.3125 C 58.578125 -11.382812 53.988281 -7.242188 44.8125 -2.890625 C 42.5625 -2.296875 40.863281 -2 39.71875 -2 C 36.164062 -2 32.835938 -3.328125 29.734375 -5.984375 C 23.773438 -2.441406 17.632812 -0.671875 11.3125 -0.671875 C 9.539062 -0.671875 7.617188 -0.960938 5.546875 -1.546875 C -0.890625 3.179688 -5.328125 5.546875 -7.765625 5.546875 C -9.609375 5.546875 -10.71875 4.363281 -11.09375 2 C -11.09375 -1.664062 -7.988281 -4.847656 -1.78125 -7.546875 L -1.78125 -7.984375 C -1.78125 -13.128906 2.140625 -17.863281 9.984375 -22.1875 C 11.316406 -22.78125 13.164062 -23.222656 15.53125 -23.515625 C 19.375 -23.035156 21.296875 -21.1875 21.296875 -17.96875 C 21.296875 -14.601562 18.488281 -10.90625 12.875 -6.875 L 13.984375 -6.65625 L 15.3125 -6.65625 C 16.675781 -6.65625 20.742188 -7.765625 27.515625 -9.984375 L 27.296875 -10.203125 L 27.296875 -10.421875 C 27.296875 -13.273438 29.878906 -16.457031 35.046875 -19.96875 C 37.265625 -21.300781 39.5625 -21.96875 41.9375 -21.96875 C 44.59375 -21.96875 46.144531 -21.003906 46.59375 -19.078125 L 46.59375 -18.859375 C 46.59375 -16.265625 43.410156 -13.53125 37.046875 -10.65625 L 35.9375 -9.3125 L 35.9375 -8.65625 C 37.3125 -7.320312 39.015625 -6.65625 41.046875 -6.65625 C 45.109375 -6.65625 48.734375 -8.578125 51.921875 -12.421875 L 52.140625 -13.984375 L 52.140625 -14.859375 C 52.140625 -16.640625 50.957031 -18.488281 48.59375 -20.40625 C 48 -21.332031 47.703125 -22.367188 47.703125 -23.515625 C 47.703125 -25.953125 50.289062 -27.65625 55.46875 -28.625 Z M 6.875 -11.53125 L 7.09375 -10.203125 C 7.726562 -10.203125 9.578125 -11.535156 12.640625 -14.203125 C 14.117188 -16.046875 14.859375 -17.375 14.859375 -18.1875 L 14.640625 -18.421875 L 13.75 -18.421875 C 9.164062 -16.972656 6.875 -14.675781 6.875 -11.53125 Z M 36.609375 -14.421875 L 36.828125 -14.421875 C 38.160156 -15.234375 38.898438 -15.828125 39.046875 -16.203125 L 38.828125 -16.421875 L 38.609375 -16.421875 C 38.128906 -16.421875 37.460938 -15.753906 36.609375 -14.421875 Z M -3.109375 -1.546875 L -3.109375 -1.328125 L -2.65625 -1.328125 L -2.4375 -1.546875 L -2.4375 -1.78125 Z M -3.109375 -1.546875" transform="translate(65.228 260.36)"/></g></g></g><g fill="#323232"><g><g><path d="M 41.484375 -19.96875 L 43.046875 -19.96875 C 46.890625 -19.96875 49.476562 -17.75 50.8125 -13.3125 C 51.0625 -13.3125 51.28125 -9.019531 51.46875 -0.4375 L 50.359375 0 C 45.992188 -0.144531 43.476562 -0.367188 42.8125 -0.671875 C 44 -6.472656 44.59375 -10.316406 44.59375 -12.203125 L 44.59375 -13.75 C 44.59375 -15.082031 43.410156 -15.898438 41.046875 -16.203125 C 39.492188 -16.203125 36.679688 -14.5 32.609375 -11.09375 C 31.128906 -10.3125 30.390625 -9.644531 30.390625 -9.09375 C 31.429688 -7.425781 31.953125 -6.171875 31.953125 -5.328125 C 31.953125 -3.210938 29.210938 -1.734375 23.734375 -0.890625 C 17.972656 -0.890625 12.351562 -0.59375 6.875 0 C 2.289062 0 0 -1.253906 0 -3.765625 C 0 -6.722656 2.289062 -8.570312 6.875 -9.3125 C 10.207031 -11.601562 13.164062 -14.640625 15.75 -18.421875 L 16.421875 -18.859375 L 17.3125 -18.859375 C 18.457031 -18.859375 19.117188 -18.117188 19.296875 -16.640625 C 19.296875 -13.492188 16.785156 -10.609375 11.765625 -7.984375 C 10.097656 -6.691406 9.132812 -5.734375 8.875 -5.109375 L 11.09375 -4.875 L 25.078125 -5.109375 C 25.734375 -5.359375 26.25 -5.800781 26.625 -6.4375 L 26.625 -7.09375 L 25.953125 -9.984375 C 25.953125 -10.910156 28.171875 -12.832031 32.609375 -15.75 C 35.972656 -18.5625 38.929688 -19.96875 41.484375 -19.96875 Z M 41.484375 -19.96875" transform="translate(211.56 260.36)"/></g></g></g><g fill="#323232"><g><g><path d="M 17.421875 -40.484375 L 21.859375 -40.484375 C 27.617188 -40.484375 32.644531 -37.820312 36.9375 -32.5 C 38.5625 -29.875 39.375 -27.359375 39.375 -24.953125 L 39.375 -21.625 C 39.375 -15.195312 36.046875 -9.800781 29.390625 -5.4375 C 25.921875 -3.84375 20.742188 -2.582031 13.859375 -1.65625 C 10.460938 -0.476562 7.953125 0.109375 6.328125 0.109375 C 2.554688 0.109375 0.335938 -2.328125 -0.328125 -7.203125 C -0.328125 -10.203125 2.921875 -14.195312 9.421875 -19.1875 C 14.160156 -25.101562 19.046875 -28.0625 24.078125 -28.0625 C 27.617188 -27.625 29.390625 -26.144531 29.390625 -23.625 L 29.390625 -23.40625 C 29.390625 -17.894531 24.507812 -12.570312 14.75 -7.4375 L 14.75 -7.203125 L 16.96875 -6.984375 L 17.421875 -6.984375 C 25.367188 -6.984375 30.765625 -10.3125 33.609375 -16.96875 C 34.054688 -18.5625 34.28125 -19.894531 34.28125 -20.96875 L 34.28125 -22.96875 C 34.28125 -28.320312 31.46875 -32.3125 25.84375 -34.9375 C 24.363281 -35.53125 22.738281 -35.828125 20.96875 -35.828125 C 14.5 -35.828125 7.84375 -32.203125 1 -24.953125 C -1.8125 -20.960938 -3.21875 -16.894531 -3.21875 -12.75 L -2.765625 -7.875 C -2.765625 -7.425781 -3.359375 -6.832031 -4.546875 -6.09375 L -5.21875 -6.09375 C -6.695312 -6.09375 -7.4375 -7.28125 -7.4375 -9.65625 L -7.65625 -12.53125 C -7.65625 -24.332031 -2.476562 -32.910156 7.875 -38.265625 C 11.6875 -39.742188 14.867188 -40.484375 17.421875 -40.484375 Z M 10.984375 -12.984375 L 10.984375 -12.53125 C 10.984375 -11.457031 11.351562 -10.867188 12.09375 -10.765625 C 17.195312 -12.679688 21.039062 -16.007812 23.625 -20.75 L 24.078125 -23.40625 L 23.1875 -23.84375 C 21.257812 -23.625 17.707031 -21.035156 12.53125 -16.078125 C 11.5 -14.640625 10.984375 -13.609375 10.984375 -12.984375 Z M 10.984375 -12.984375" transform="translate(274.464 260.36)"/></g></g></g><path fill="#323232" d="M 218.871094 163.210938 C 209.679688 155.640625 197.839844 152.46875 186.527344 155.640625 C 182.167969 142.199219 177.457031 128.878906 173.390625 115.320312 C 173.683594 114.910156 173.921875 114.5 174.214844 114.148438 C 178.632812 107.574219 183.109375 101 187.527344 94.425781 C 191.359375 88.675781 194.953125 82.691406 197.191406 76.117188 C 200.84375 65.316406 198.839844 52.40625 189.296875 45.1875 C 179.28125 37.5 165.554688 42.371094 159.488281 52.464844 C 151.769531 65.257812 155.304688 82.277344 157.957031 96.070312 C 159.488281 104.167969 161.492188 112.152344 163.789062 120.015625 C 155.660156 131.8125 147.351562 143.550781 140.105469 155.933594 C 132.566406 168.902344 126.4375 183.046875 125.4375 198.128906 C 124.613281 211.273438 127.675781 225.183594 136.101562 235.628906 C 149.648438 252.355469 171.625 254.9375 190.886719 248.777344 C 191.179688 258.050781 191.300781 267.320312 191.359375 276.59375 C 191.476562 290.503906 190.828125 305.234375 183.640625 317.558594 C 180.695312 322.605469 175.628906 328.179688 169.855469 329.941406 C 164.082031 331.703125 157.484375 331.585938 152.417969 328.0625 C 147.765625 324.894531 145.761719 319.320312 146.292969 313.804688 C 146.882812 308.226562 150.828125 301.890625 157.132812 301.832031 C 160.902344 301.832031 163.257812 305.410156 163.613281 308.816406 C 164.023438 312.570312 162.140625 316.03125 160.488281 319.261719 C 156.71875 326.597656 169.324219 330.175781 169.972656 321.84375 C 170.503906 315.035156 170.738281 306.820312 165.203125 301.832031 C 160.902344 298.015625 154.539062 298.308594 150.0625 301.65625 C 142.34375 307.40625 141.875 319.789062 147.707031 327.007812 C 155.539062 336.75 170.328125 336.515625 180.753906 331.410156 C 186.820312 328.476562 192.007812 322.136719 195.128906 316.210938 C 198.78125 309.285156 200.546875 301.476562 201.492188 293.730469 C 202.492188 285.222656 202.375 276.652344 202.316406 268.144531 C 202.257812 260.164062 202.140625 252.121094 201.902344 244.140625 C 205.320312 242.320312 208.558594 240.207031 211.566406 237.859375 C 217.398438 233.28125 222.285156 228.351562 226.117188 221.957031 C 230.121094 215.207031 232.59375 207.871094 233.539062 200.066406 C 235.070312 186.332031 229.589844 172.070312 218.871094 163.210938 Z M 172.269531 50.878906 C 177.335938 47.183594 183.347656 48.0625 187.589844 52.464844 C 192.183594 57.160156 193.773438 64.027344 192.714844 70.425781 C 191.417969 78.054688 187.292969 84.800781 183.109375 91.199219 C 179.28125 97.066406 175.394531 102.878906 171.445312 108.6875 C 170.152344 103.992188 168.914062 99.296875 167.851562 94.542969 C 164.964844 81.515625 159.3125 60.445312 172.269531 50.878906 Z M 171.269531 246.898438 C 158.25 246.429688 145.644531 240.148438 138.515625 229.058594 C 122.785156 204.703125 134.6875 175.125 148.472656 152.996094 C 154.007812 144.078125 159.839844 135.332031 165.671875 126.648438 C 167.027344 131.046875 168.382812 135.449219 169.855469 139.851562 C 172.035156 146.660156 174.273438 153.527344 176.453125 160.332031 C 167.617188 166.496094 161.785156 176.765625 162.667969 187.800781 C 163.140625 193.902344 165.730469 199.773438 169.503906 204.585938 C 170.03125 205.289062 171.035156 204.410156 170.679688 203.703125 C 164.257812 192.144531 166.085938 176.121094 176.101562 167.140625 C 176.75 166.554688 177.394531 166.027344 178.042969 165.558594 C 179.753906 171.308594 181.402344 177.058594 182.933594 182.871094 C 186.761719 198.011719 188.941406 213.328125 190.003906 228.882812 C 190.296875 233.519531 190.535156 238.152344 190.710938 242.730469 C 184.640625 245.550781 178.101562 247.132812 171.269531 246.898438 Z M 222.875 197.074219 C 222.464844 203.175781 220.460938 209.339844 217.75 214.796875 C 214.863281 220.664062 210.976562 226.710938 206.378906 231.40625 C 204.847656 232.988281 203.199219 234.515625 201.492188 235.925781 C 200.726562 220.3125 199.132812 204.761719 195.894531 189.441406 C 193.832031 179.757812 191.121094 170.3125 188.175781 160.863281 C 195.660156 159.160156 203.730469 160.628906 210.089844 165.675781 C 219.8125 173.246094 223.699219 185.042969 222.875 197.074219 Z M 222.875 197.074219"/><g fill="#323232"><g><g><path d="M 5.875 0 L 3.296875 -8.40625 L 3.234375 -8.40625 C 3.328125 -6.695312 3.375 -5.554688 3.375 -4.984375 L 3.375 0 L 1.34375 0 L 1.34375 -10.703125 L 4.4375 -10.703125 L 6.96875 -2.515625 L 7.015625 -2.515625 L 9.703125 -10.703125 L 12.796875 -10.703125 L 12.796875 0 L 10.671875 0 L 10.671875 -5.0625 C 10.671875 -5.300781 10.675781 -5.578125 10.6875 -5.890625 C 10.695312 -6.203125 10.726562 -7.035156 10.78125 -8.390625 L 10.71875 -8.390625 L 7.96875 0 Z M 5.875 0" transform="translate(233.308 287.33)"/></g></g></g><g fill="#323232"><g><g><path d="M 6.96875 0 L 6.671875 -1.046875 L 6.5625 -1.046875 C 6.320312 -0.660156 5.976562 -0.363281 5.53125 -0.15625 C 5.09375 0.0390625 4.59375 0.140625 4.03125 0.140625 C 3.070312 0.140625 2.347656 -0.113281 1.859375 -0.625 C 1.367188 -1.144531 1.125 -1.882812 1.125 -2.84375 L 1.125 -8.1875 L 3.359375 -8.1875 L 3.359375 -3.40625 C 3.359375 -2.8125 3.460938 -2.367188 3.671875 -2.078125 C 3.878906 -1.785156 4.21875 -1.640625 4.6875 -1.640625 C 5.3125 -1.640625 5.757812 -1.847656 6.03125 -2.265625 C 6.3125 -2.679688 6.453125 -3.375 6.453125 -4.34375 L 6.453125 -8.1875 L 8.6875 -8.1875 L 8.6875 0 Z M 6.96875 0" transform="translate(254.951 287.33)"/></g></g></g><g fill="#323232"><g><g><path d="M 6.890625 -2.4375 C 6.890625 -1.59375 6.597656 -0.953125 6.015625 -0.515625 C 5.429688 -0.078125 4.554688 0.140625 3.390625 0.140625 C 2.796875 0.140625 2.285156 0.0976562 1.859375 0.015625 C 1.441406 -0.0546875 1.050781 -0.171875 0.6875 -0.328125 L 0.6875 -2.171875 C 1.101562 -1.972656 1.570312 -1.804688 2.09375 -1.671875 C 2.613281 -1.546875 3.070312 -1.484375 3.46875 -1.484375 C 4.28125 -1.484375 4.6875 -1.71875 4.6875 -2.1875 C 4.6875 -2.363281 4.628906 -2.503906 4.515625 -2.609375 C 4.410156 -2.722656 4.222656 -2.847656 3.953125 -2.984375 C 3.691406 -3.128906 3.34375 -3.296875 2.90625 -3.484375 C 2.28125 -3.742188 1.816406 -3.984375 1.515625 -4.203125 C 1.222656 -4.429688 1.007812 -4.691406 0.875 -4.984375 C 0.738281 -5.273438 0.671875 -5.632812 0.671875 -6.0625 C 0.671875 -6.789062 0.953125 -7.351562 1.515625 -7.75 C 2.078125 -8.144531 2.878906 -8.34375 3.921875 -8.34375 C 4.898438 -8.34375 5.859375 -8.128906 6.796875 -7.703125 L 6.125 -6.09375 C 5.71875 -6.257812 5.332031 -6.398438 4.96875 -6.515625 C 4.613281 -6.628906 4.25 -6.6875 3.875 -6.6875 C 3.21875 -6.6875 2.890625 -6.507812 2.890625 -6.15625 C 2.890625 -5.957031 2.992188 -5.78125 3.203125 -5.625 C 3.421875 -5.476562 3.890625 -5.265625 4.609375 -4.984375 C 5.242188 -4.722656 5.707031 -4.476562 6 -4.25 C 6.300781 -4.03125 6.523438 -3.773438 6.671875 -3.484375 C 6.816406 -3.191406 6.890625 -2.84375 6.890625 -2.4375 Z M 6.890625 -2.4375" transform="translate(272.31 287.33)"/></g></g></g><g fill="#323232"><g><g><path d="M 1.078125 -10.3125 C 1.078125 -11.03125 1.484375 -11.390625 2.296875 -11.390625 C 3.109375 -11.390625 3.515625 -11.03125 3.515625 -10.3125 C 3.515625 -9.957031 3.410156 -9.679688 3.203125 -9.484375 C 3.003906 -9.296875 2.703125 -9.203125 2.296875 -9.203125 C 1.484375 -9.203125 1.078125 -9.570312 1.078125 -10.3125 Z M 3.40625 0 L 1.171875 0 L 1.171875 -8.1875 L 3.40625 -8.1875 Z M 3.40625 0" transform="translate(287.266 287.33)"/></g></g></g><g fill="#323232"><g><g><path d="M 4.5 0.140625 C 1.945312 0.140625 0.671875 -1.253906 0.671875 -4.046875 C 0.671875 -5.441406 1.015625 -6.503906 1.703125 -7.234375 C 2.398438 -7.972656 3.394531 -8.34375 4.6875 -8.34375 C 5.632812 -8.34375 6.488281 -8.15625 7.25 -7.78125 L 6.578125 -6.0625 C 6.234375 -6.195312 5.910156 -6.3125 5.609375 -6.40625 C 5.304688 -6.5 5 -6.546875 4.6875 -6.546875 C 3.53125 -6.546875 2.953125 -5.71875 2.953125 -4.0625 C 2.953125 -2.457031 3.53125 -1.65625 4.6875 -1.65625 C 5.125 -1.65625 5.523438 -1.710938 5.890625 -1.828125 C 6.253906 -1.941406 6.617188 -2.125 6.984375 -2.375 L 6.984375 -0.46875 C 6.628906 -0.238281 6.265625 -0.0820312 5.890625 0 C 5.523438 0.09375 5.0625 0.140625 4.5 0.140625 Z M 4.5 0.140625" transform="translate(299.343 287.33)"/></g></g></g><g fill="#323232"><g><g><path d="M 1.34375 -10.703125 L 4.6875 -10.703125 C 6.195312 -10.703125 7.296875 -10.484375 7.984375 -10.046875 C 8.671875 -9.617188 9.015625 -8.9375 9.015625 -8 C 9.015625 -7.351562 8.863281 -6.828125 8.5625 -6.421875 C 8.257812 -6.015625 7.863281 -5.769531 7.375 -5.6875 L 7.375 -5.609375 C 8.050781 -5.460938 8.535156 -5.179688 8.828125 -4.765625 C 9.128906 -4.347656 9.28125 -3.796875 9.28125 -3.109375 C 9.28125 -2.128906 8.925781 -1.363281 8.21875 -0.8125 C 7.519531 -0.269531 6.566406 0 5.359375 0 L 1.34375 0 Z M 3.625 -6.46875 L 4.9375 -6.46875 C 5.550781 -6.46875 5.992188 -6.5625 6.265625 -6.75 C 6.546875 -6.9375 6.6875 -7.253906 6.6875 -7.703125 C 6.6875 -8.109375 6.535156 -8.398438 6.234375 -8.578125 C 5.929688 -8.753906 5.457031 -8.84375 4.8125 -8.84375 L 3.625 -8.84375 Z M 3.625 -4.671875 L 3.625 -1.875 L 5.09375 -1.875 C 5.71875 -1.875 6.175781 -1.992188 6.46875 -2.234375 C 6.769531 -2.472656 6.921875 -2.835938 6.921875 -3.328125 C 6.921875 -4.222656 6.289062 -4.671875 5.03125 -4.671875 Z M 3.625 -4.671875" transform="translate(266.18 303.83)"/></g></g></g><g fill="#323232"><g><g><path d="M 2.953125 -4.109375 C 2.953125 -3.296875 3.082031 -2.679688 3.34375 -2.265625 C 3.613281 -1.847656 4.050781 -1.640625 4.65625 -1.640625 C 5.25 -1.640625 5.675781 -1.847656 5.9375 -2.265625 C 6.195312 -2.679688 6.328125 -3.296875 6.328125 -4.109375 C 6.328125 -4.921875 6.191406 -5.53125 5.921875 -5.9375 C 5.660156 -6.34375 5.234375 -6.546875 4.640625 -6.546875 C 4.046875 -6.546875 3.613281 -6.34375 3.34375 -5.9375 C 3.082031 -5.53125 2.953125 -4.921875 2.953125 -4.109375 Z M 8.609375 -4.109375 C 8.609375 -2.773438 8.253906 -1.734375 7.546875 -0.984375 C 6.847656 -0.234375 5.875 0.140625 4.625 0.140625 C 3.832031 0.140625 3.132812 -0.03125 2.53125 -0.375 C 1.9375 -0.71875 1.476562 -1.207031 1.15625 -1.84375 C 0.832031 -2.488281 0.671875 -3.242188 0.671875 -4.109375 C 0.671875 -5.441406 1.019531 -6.476562 1.71875 -7.21875 C 2.414062 -7.96875 3.398438 -8.34375 4.671875 -8.34375 C 5.453125 -8.34375 6.140625 -8.171875 6.734375 -7.828125 C 7.335938 -7.484375 7.800781 -6.988281 8.125 -6.34375 C 8.445312 -5.707031 8.609375 -4.960938 8.609375 -4.109375 Z M 8.609375 -4.109375" transform="translate(283.757 303.83)"/></g></g></g><g fill="#323232"><g><g><path d="M 4.625 -1.640625 C 5.007812 -1.640625 5.476562 -1.722656 6.03125 -1.890625 L 6.03125 -0.234375 C 5.46875 0.015625 4.785156 0.140625 3.984375 0.140625 C 3.085938 0.140625 2.429688 -0.0820312 2.015625 -0.53125 C 1.609375 -0.976562 1.40625 -1.65625 1.40625 -2.5625 L 1.40625 -6.515625 L 0.34375 -6.515625 L 0.34375 -7.453125 L 1.578125 -8.203125 L 2.21875 -9.9375 L 3.640625 -9.9375 L 3.640625 -8.1875 L 5.9375 -8.1875 L 5.9375 -6.515625 L 3.640625 -6.515625 L 3.640625 -2.5625 C 3.640625 -2.25 3.726562 -2.015625 3.90625 -1.859375 C 4.09375 -1.710938 4.332031 -1.640625 4.625 -1.640625 Z M 4.625 -1.640625" transform="translate(300.545 303.83)"/></g></g></g></svg>